<?xml version="1.0" encoding="UTF-8" standalone="no"?>
<svg
   xmlns:dc="http://purl.org/dc/elements/1.1/"
   xmlns:cc="http://creativecommons.org/ns#"
   xmlns:rdf="http://www.w3.org/1999/02/22-rdf-syntax-ns#"
   xmlns:svg="http://www.w3.org/2000/svg"
   xmlns="http://www.w3.org/2000/svg"
   xmlns:sodipodi="http://sodipodi.sourceforge.net/DTD/sodipodi-0.dtd"
   xmlns:inkscape="http://www.inkscape.org/namespaces/inkscape"
   version="1.1"
   id="svg4528"
   viewBox="0 0 256 256"
   height="256"
   width="256"
   sodipodi:docname="CantabileIcon.svg"
   inkscape:export-filename="C:\Users\Brad\Dropbox\Cantabile\Artwork\CantabileIcon310.png"
   inkscape:export-xdpi="116.25"
   inkscape:export-ydpi="116.25"
   inkscape:version="0.92.2 (5c3e80d, 2017-08-06)">
  <sodipodi:namedview
     pagecolor="#ffffff"
     bordercolor="#666666"
     borderopacity="1"
     objecttolerance="10"
     gridtolerance="10"
     guidetolerance="10"
     inkscape:pageopacity="0"
     inkscape:pageshadow="2"
     inkscape:window-width="2932"
     inkscape:window-height="1352"
     id="namedview23"
     showgrid="false"
     inkscape:zoom="0.23046875"
     inkscape:cx="-454.62994"
     inkscape:cy="-389.66111"
     inkscape:window-x="4442"
     inkscape:window-y="293"
     inkscape:window-maximized="0"
     inkscape:current-layer="g5136" />
  <defs
     id="defs4530" />
  <metadata
     id="metadata4533">
    <rdf:RDF>
      <cc:Work
         rdf:about="">
        <dc:format>image/svg+xml</dc:format>
        <dc:type
           rdf:resource="http://purl.org/dc/dcmitype/StillImage" />
        <dc:title></dc:title>
      </cc:Work>
    </rdf:RDF>
  </metadata>
  <g
     transform="translate(-391.29228,-609.61101)"
     id="g6966-8-1">
    <g
       id="g5025">
      <g
         id="g5136"
         transform="matrix(13.837838,0,0,13.837838,-1798.3874,-7445.3366)">
        <rect
           style="opacity:0;fill:#ffff00;fill-opacity:1;stroke:none;stroke-width:0.05;stroke-linecap:round;stroke-linejoin:round;stroke-miterlimit:4;stroke-dasharray:none;stroke-opacity:1"
           id="rect5144"
           width="18.5"
           height="18.5"
           x="213.73856"
           y="583.6134" />
        <rect
           style="opacity:1;fill:#ffffff;fill-opacity:1;stroke:none;stroke-width:0.08227278;stroke-linecap:round;stroke-linejoin:round;stroke-miterlimit:4;stroke-dasharray:none;stroke-opacity:1"
           id="rect5569"
           width="18.417728"
           height="18.417727"
           x="227.36565"
           y="557.85571"
           rx="3"
           ry="3" />
        <g
           id="g5776"
           transform="matrix(0.87848806,0,0,0.87848806,16.34747,30.705369)">
          <path
             inkscape:connector-curvature="0"
             id="path5757"
             d="m 172.25782,627.65845 0.0361,2.67114 c -0.76785,-0.0195 -1.53455,0.0707 -2.27693,0.26775 -3.52969,0.94579 -5.98408,4.14441 -5.98407,7.79862 -1e-5,3.65421 2.45438,6.85283 5.98407,7.79862 4.54786,0.73835 7.36552,-0.70853 9.25056,-4.33947 l -3.90075,-2.24075 c 0.0958,-0.19656 0.29326,-0.76174 0.2877,-1.32937 l 0.0173,-1.18812 3.6401,-2.20706 c -0.90043,-3.33387 -2.64714,-5.85802 -7.05408,-7.23136 z"
             style="opacity:1;fill:#ffffff;fill-opacity:1;stroke:none;stroke-width:1.00000012;stroke-linecap:round;stroke-linejoin:round;stroke-miterlimit:4;stroke-dasharray:none;stroke-opacity:1" />
          <g
             transform="matrix(1.0729648,0,0,1.0729648,-159.88992,-53.783042)"
             id="g5565">
            <path
               inkscape:connector-curvature="0"
               style="fill:#346ea9;fill-opacity:1;fill-rule:evenodd;stroke:none;stroke-width:0.05;stroke-linecap:butt;stroke-linejoin:miter;stroke-miterlimit:4;stroke-dasharray:none;stroke-opacity:1"
               d="m 310.13436,641.96882 c -0.0168,0.42048 -0.46112,0.55153 -0.70361,0.5537 -1.29846,0.0116 -2.66492,1.14688 -2.6517,2.75489 0.0112,1.36833 1.27315,2.54409 2.59383,2.5065 1.31703,-0.0375 2.69138,-1.24568 2.66518,-2.91902 -0.0226,-1.44211 -0.006,-4.58527 -10e-4,-5.63701 7.9e-4,-0.16864 0.13934,-0.24601 0.22417,-0.21346 1.48233,0.5688 2.23545,1.25726 3.12604,2.48909 -0.53647,-2.30298 -2.58834,-4.77281 -5.22883,-5.44379 z"
               id="path5138-6" />
            <path
               inkscape:connector-curvature="0"
               style="color:#000000;font-style:normal;font-variant:normal;font-weight:normal;font-stretch:normal;font-size:medium;line-height:normal;font-family:sans-serif;text-indent:0;text-align:start;text-decoration:none;text-decoration-line:none;text-decoration-style:solid;text-decoration-color:#000000;letter-spacing:normal;word-spacing:normal;text-transform:none;writing-mode:lr-tb;direction:ltr;baseline-shift:baseline;text-anchor:start;white-space:normal;clip-rule:nonzero;display:inline;overflow:visible;visibility:visible;opacity:1;isolation:auto;mix-blend-mode:normal;color-interpolation:sRGB;color-interpolation-filters:linearRGB;solid-color:#000000;solid-opacity:1;fill:#1489f4;fill-opacity:1;fill-rule:evenodd;stroke:none;stroke-width:3.5;stroke-linecap:butt;stroke-linejoin:bevel;stroke-miterlimit:4;stroke-dasharray:none;stroke-dashoffset:0;stroke-opacity:1;color-rendering:auto;image-rendering:auto;shape-rendering:auto;text-rendering:auto;enable-background:new"
               d="m 309.30403,638.43116 c -0.55623,0.006 -1.11651,0.0583 -1.67188,0.20703 -2.94282,0.78853 -5.0039,3.4729 -5.0039,6.51953 0,3.04664 2.06108,5.731 5.0039,6.51953 2.94282,0.78852 6.06848,-0.50606 7.5918,-3.14453 l -3.03125,-1.75 c -0.73971,1.28122 -2.22528,1.89657 -3.6543,1.51367 -1.42901,-0.38291 -2.41015,-1.65924 -2.41015,-3.13867 0,-1.47942 0.98114,-2.75576 2.41015,-3.13867 0.25519,-0.0684 0.51141,-0.095 0.76563,-0.10157 z m 3.47461,1.57739 v 3.18628 l 2.07031,-1.22461 c -0.62316,-0.95267 -1.07986,-1.38434 -2.07031,-1.96167 z"
               id="path5140-7" />
            <path
               inkscape:connector-curvature="0"
               id="path5733"
               d="m 310.13436,641.96882 c -0.0168,0.42048 -0.46112,0.55153 -0.70361,0.5537 -1.29846,0.0116 -2.66492,1.14688 -2.6517,2.75489 0.0112,1.36833 1.27315,2.54409 2.59383,2.5065 1.31703,-0.0375 2.69138,-1.24568 2.66518,-2.91902 -0.0226,-1.44211 -0.006,-4.58527 -10e-4,-5.63701 7.9e-4,-0.16864 0.13934,-0.24601 0.22417,-0.21346 1.48233,0.5688 2.23545,1.25726 3.12604,2.48909 -0.53647,-2.30298 -2.58834,-4.77281 -5.22883,-5.44379 z"
               style="fill:#2e5f90;fill-opacity:1;fill-rule:evenodd;stroke:none;stroke-width:0.05;stroke-linecap:butt;stroke-linejoin:miter;stroke-miterlimit:4;stroke-dasharray:none;stroke-opacity:1" />
            <path
               inkscape:connector-curvature="0"
               id="path5735"
               d="m 309.30403,638.43116 c -0.55623,0.006 -1.11651,0.0583 -1.67188,0.20703 -2.94282,0.78853 -5.0039,3.4729 -5.0039,6.51953 0,3.04664 2.06108,5.731 5.0039,6.51953 2.94282,0.78852 6.06848,-0.50606 7.5918,-3.14453 l -3.03125,-1.75 c -0.73971,1.28122 -2.22528,1.89657 -3.6543,1.51367 -1.42901,-0.38291 -2.41015,-1.65924 -2.41015,-3.13867 0,-1.47942 0.98114,-2.75576 2.41015,-3.13867 0.25519,-0.0684 0.51141,-0.095 0.76563,-0.10157 z m 3.47461,1.57739 v 3.18628 l 2.07031,-1.22461 c -0.62316,-0.95267 -1.07986,-1.38434 -2.07031,-1.96167 z"
               style="color:#000000;font-style:normal;font-variant:normal;font-weight:normal;font-stretch:normal;font-size:medium;line-height:normal;font-family:sans-serif;text-indent:0;text-align:start;text-decoration:none;text-decoration-line:none;text-decoration-style:solid;text-decoration-color:#000000;letter-spacing:normal;word-spacing:normal;text-transform:none;writing-mode:lr-tb;direction:ltr;baseline-shift:baseline;text-anchor:start;white-space:normal;clip-rule:nonzero;display:inline;overflow:visible;visibility:visible;opacity:1;isolation:auto;mix-blend-mode:normal;color-interpolation:sRGB;color-interpolation-filters:linearRGB;solid-color:#000000;solid-opacity:1;fill:#1489f4;fill-opacity:1;fill-rule:evenodd;stroke:none;stroke-width:3.5;stroke-linecap:butt;stroke-linejoin:bevel;stroke-miterlimit:4;stroke-dasharray:none;stroke-dashoffset:0;stroke-opacity:1;color-rendering:auto;image-rendering:auto;shape-rendering:auto;text-rendering:auto;enable-background:new" />
          </g>
        </g>
      </g>
    </g>
  </g>
</svg>
